<mxfile host="app.diagrams.net" modified="2023-09-13T16:51:34.444Z" agent="Mozilla/5.0 (Windows NT 10.0; Win64; x64) AppleWebKit/537.36 (KHTML, like Gecko) Chrome/116.0.0.0 Safari/537.36 Edg/116.0.1938.76" etag="wzOXkGb2KmdTS811_mpd" version="21.7.5" type="github">
  <diagram name="Trang-1" id="MToTZ4PZ50AtNcif5sS9">
    <mxGraphModel dx="2133" dy="759" grid="1" gridSize="10" guides="1" tooltips="1" connect="1" arrows="1" fold="1" page="1" pageScale="1" pageWidth="827" pageHeight="1169" math="0" shadow="0">
      <root>
        <mxCell id="0" />
        <mxCell id="1" parent="0" />
        <mxCell id="RTF-Htk1n59OtEz7Hh9_-11" value="" style="edgeStyle=orthogonalEdgeStyle;rounded=0;orthogonalLoop=1;jettySize=auto;html=1;" edge="1" parent="1" source="RTF-Htk1n59OtEz7Hh9_-3" target="RTF-Htk1n59OtEz7Hh9_-10">
          <mxGeometry relative="1" as="geometry" />
        </mxCell>
        <mxCell id="RTF-Htk1n59OtEz7Hh9_-30" value="" style="edgeStyle=orthogonalEdgeStyle;rounded=0;orthogonalLoop=1;jettySize=auto;html=1;" edge="1" parent="1" source="RTF-Htk1n59OtEz7Hh9_-3" target="RTF-Htk1n59OtEz7Hh9_-29">
          <mxGeometry relative="1" as="geometry" />
        </mxCell>
        <mxCell id="RTF-Htk1n59OtEz7Hh9_-33" value="" style="edgeStyle=orthogonalEdgeStyle;rounded=0;orthogonalLoop=1;jettySize=auto;html=1;" edge="1" parent="1" source="RTF-Htk1n59OtEz7Hh9_-3" target="RTF-Htk1n59OtEz7Hh9_-32">
          <mxGeometry relative="1" as="geometry" />
        </mxCell>
        <mxCell id="RTF-Htk1n59OtEz7Hh9_-3" value="Thí Sinh" style="rounded=0;whiteSpace=wrap;html=1;" vertex="1" parent="1">
          <mxGeometry x="170" y="260" width="120" height="60" as="geometry" />
        </mxCell>
        <mxCell id="RTF-Htk1n59OtEz7Hh9_-18" value="" style="edgeStyle=orthogonalEdgeStyle;rounded=0;orthogonalLoop=1;jettySize=auto;html=1;" edge="1" parent="1" source="RTF-Htk1n59OtEz7Hh9_-4" target="RTF-Htk1n59OtEz7Hh9_-17">
          <mxGeometry relative="1" as="geometry" />
        </mxCell>
        <mxCell id="RTF-Htk1n59OtEz7Hh9_-47" value="" style="edgeStyle=orthogonalEdgeStyle;rounded=0;orthogonalLoop=1;jettySize=auto;html=1;" edge="1" parent="1" source="RTF-Htk1n59OtEz7Hh9_-4" target="RTF-Htk1n59OtEz7Hh9_-46">
          <mxGeometry relative="1" as="geometry" />
        </mxCell>
        <mxCell id="RTF-Htk1n59OtEz7Hh9_-4" value="Trường" style="rounded=0;whiteSpace=wrap;html=1;" vertex="1" parent="1">
          <mxGeometry x="320" y="585" width="120" height="60" as="geometry" />
        </mxCell>
        <mxCell id="RTF-Htk1n59OtEz7Hh9_-20" value="" style="edgeStyle=orthogonalEdgeStyle;rounded=0;orthogonalLoop=1;jettySize=auto;html=1;" edge="1" parent="1" source="RTF-Htk1n59OtEz7Hh9_-5" target="RTF-Htk1n59OtEz7Hh9_-19">
          <mxGeometry relative="1" as="geometry" />
        </mxCell>
        <mxCell id="RTF-Htk1n59OtEz7Hh9_-50" value="" style="edgeStyle=orthogonalEdgeStyle;rounded=0;orthogonalLoop=1;jettySize=auto;html=1;" edge="1" parent="1" source="RTF-Htk1n59OtEz7Hh9_-5" target="RTF-Htk1n59OtEz7Hh9_-49">
          <mxGeometry relative="1" as="geometry" />
        </mxCell>
        <mxCell id="RTF-Htk1n59OtEz7Hh9_-5" value="Ngành" style="rounded=0;whiteSpace=wrap;html=1;" vertex="1" parent="1">
          <mxGeometry x="830" y="515" width="120" height="60" as="geometry" />
        </mxCell>
        <mxCell id="RTF-Htk1n59OtEz7Hh9_-28" value="" style="edgeStyle=orthogonalEdgeStyle;rounded=0;orthogonalLoop=1;jettySize=auto;html=1;" edge="1" parent="1" source="RTF-Htk1n59OtEz7Hh9_-6" target="RTF-Htk1n59OtEz7Hh9_-27">
          <mxGeometry relative="1" as="geometry" />
        </mxCell>
        <mxCell id="RTF-Htk1n59OtEz7Hh9_-42" value="" style="edgeStyle=orthogonalEdgeStyle;rounded=0;orthogonalLoop=1;jettySize=auto;html=1;" edge="1" parent="1" source="RTF-Htk1n59OtEz7Hh9_-6" target="RTF-Htk1n59OtEz7Hh9_-41">
          <mxGeometry relative="1" as="geometry" />
        </mxCell>
        <mxCell id="RTF-Htk1n59OtEz7Hh9_-6" value="Khối Thi" style="rounded=0;whiteSpace=wrap;html=1;" vertex="1" parent="1">
          <mxGeometry x="740" y="180" width="120" height="60" as="geometry" />
        </mxCell>
        <mxCell id="RTF-Htk1n59OtEz7Hh9_-22" value="" style="edgeStyle=orthogonalEdgeStyle;rounded=0;orthogonalLoop=1;jettySize=auto;html=1;" edge="1" parent="1" source="RTF-Htk1n59OtEz7Hh9_-7" target="RTF-Htk1n59OtEz7Hh9_-21">
          <mxGeometry relative="1" as="geometry" />
        </mxCell>
        <mxCell id="RTF-Htk1n59OtEz7Hh9_-7" value="Môn thi" style="rounded=0;whiteSpace=wrap;html=1;" vertex="1" parent="1">
          <mxGeometry x="420" y="150" width="120" height="60" as="geometry" />
        </mxCell>
        <mxCell id="RTF-Htk1n59OtEz7Hh9_-26" value="" style="edgeStyle=orthogonalEdgeStyle;rounded=0;orthogonalLoop=1;jettySize=auto;html=1;" edge="1" parent="1" source="RTF-Htk1n59OtEz7Hh9_-8" target="RTF-Htk1n59OtEz7Hh9_-25">
          <mxGeometry relative="1" as="geometry" />
        </mxCell>
        <mxCell id="RTF-Htk1n59OtEz7Hh9_-53" value="" style="edgeStyle=orthogonalEdgeStyle;rounded=0;orthogonalLoop=1;jettySize=auto;html=1;" edge="1" parent="1" source="RTF-Htk1n59OtEz7Hh9_-8" target="RTF-Htk1n59OtEz7Hh9_-52">
          <mxGeometry relative="1" as="geometry">
            <Array as="points">
              <mxPoint x="110" y="470" />
            </Array>
          </mxGeometry>
        </mxCell>
        <mxCell id="RTF-Htk1n59OtEz7Hh9_-8" value="Phòng thi" style="rounded=0;whiteSpace=wrap;html=1;" vertex="1" parent="1">
          <mxGeometry x="-60" y="410" width="120" height="60" as="geometry" />
        </mxCell>
        <mxCell id="RTF-Htk1n59OtEz7Hh9_-24" value="" style="edgeStyle=orthogonalEdgeStyle;rounded=0;orthogonalLoop=1;jettySize=auto;html=1;" edge="1" parent="1" source="RTF-Htk1n59OtEz7Hh9_-9" target="RTF-Htk1n59OtEz7Hh9_-23">
          <mxGeometry relative="1" as="geometry" />
        </mxCell>
        <mxCell id="RTF-Htk1n59OtEz7Hh9_-38" value="" style="edgeStyle=orthogonalEdgeStyle;rounded=0;orthogonalLoop=1;jettySize=auto;html=1;" edge="1" parent="1" source="RTF-Htk1n59OtEz7Hh9_-9" target="RTF-Htk1n59OtEz7Hh9_-37">
          <mxGeometry relative="1" as="geometry" />
        </mxCell>
        <mxCell id="RTF-Htk1n59OtEz7Hh9_-56" value="" style="edgeStyle=orthogonalEdgeStyle;rounded=0;orthogonalLoop=1;jettySize=auto;html=1;" edge="1" parent="1" source="RTF-Htk1n59OtEz7Hh9_-9" target="RTF-Htk1n59OtEz7Hh9_-55">
          <mxGeometry relative="1" as="geometry" />
        </mxCell>
        <mxCell id="RTF-Htk1n59OtEz7Hh9_-9" value="Giám thị" style="rounded=0;whiteSpace=wrap;html=1;" vertex="1" parent="1">
          <mxGeometry x="-80" y="680" width="120" height="60" as="geometry" />
        </mxCell>
        <mxCell id="RTF-Htk1n59OtEz7Hh9_-14" value="" style="edgeStyle=orthogonalEdgeStyle;rounded=0;orthogonalLoop=1;jettySize=auto;html=1;" edge="1" parent="1" source="RTF-Htk1n59OtEz7Hh9_-10" target="RTF-Htk1n59OtEz7Hh9_-13">
          <mxGeometry relative="1" as="geometry" />
        </mxCell>
        <mxCell id="RTF-Htk1n59OtEz7Hh9_-16" value="" style="edgeStyle=orthogonalEdgeStyle;rounded=0;orthogonalLoop=1;jettySize=auto;html=1;" edge="1" parent="1" source="RTF-Htk1n59OtEz7Hh9_-10" target="RTF-Htk1n59OtEz7Hh9_-15">
          <mxGeometry relative="1" as="geometry" />
        </mxCell>
        <mxCell id="RTF-Htk1n59OtEz7Hh9_-10" value="Họ và tên" style="ellipse;whiteSpace=wrap;html=1;rounded=0;" vertex="1" parent="1">
          <mxGeometry x="180" y="160" width="70" height="50" as="geometry" />
        </mxCell>
        <mxCell id="RTF-Htk1n59OtEz7Hh9_-13" value="Họ" style="ellipse;whiteSpace=wrap;html=1;rounded=0;" vertex="1" parent="1">
          <mxGeometry x="80" y="40" width="80" height="80" as="geometry" />
        </mxCell>
        <mxCell id="RTF-Htk1n59OtEz7Hh9_-15" value="Tên" style="ellipse;whiteSpace=wrap;html=1;rounded=0;" vertex="1" parent="1">
          <mxGeometry x="270" y="50" width="60" height="60" as="geometry" />
        </mxCell>
        <mxCell id="RTF-Htk1n59OtEz7Hh9_-17" value="Tên" style="ellipse;whiteSpace=wrap;html=1;rounded=0;" vertex="1" parent="1">
          <mxGeometry x="380" y="680" width="80" height="80" as="geometry" />
        </mxCell>
        <mxCell id="RTF-Htk1n59OtEz7Hh9_-19" value="Mã ngành" style="ellipse;whiteSpace=wrap;html=1;rounded=0;" vertex="1" parent="1">
          <mxGeometry x="950" y="645" width="80" height="80" as="geometry" />
        </mxCell>
        <mxCell id="RTF-Htk1n59OtEz7Hh9_-21" value="Tên Môn" style="ellipse;whiteSpace=wrap;html=1;rounded=0;" vertex="1" parent="1">
          <mxGeometry x="450" y="40" width="80" height="80" as="geometry" />
        </mxCell>
        <mxCell id="RTF-Htk1n59OtEz7Hh9_-23" value="Họ và tên" style="ellipse;whiteSpace=wrap;html=1;rounded=0;" vertex="1" parent="1">
          <mxGeometry x="-190" y="680" width="80" height="80" as="geometry" />
        </mxCell>
        <mxCell id="RTF-Htk1n59OtEz7Hh9_-25" value="Số phòng" style="ellipse;whiteSpace=wrap;html=1;rounded=0;" vertex="1" parent="1">
          <mxGeometry x="-210" y="400" width="80" height="80" as="geometry" />
        </mxCell>
        <mxCell id="RTF-Htk1n59OtEz7Hh9_-27" value="Tên khối" style="ellipse;whiteSpace=wrap;html=1;rounded=0;" vertex="1" parent="1">
          <mxGeometry x="950" y="110" width="80" height="80" as="geometry" />
        </mxCell>
        <mxCell id="RTF-Htk1n59OtEz7Hh9_-31" value="" style="edgeStyle=orthogonalEdgeStyle;rounded=0;orthogonalLoop=1;jettySize=auto;html=1;" edge="1" parent="1" source="RTF-Htk1n59OtEz7Hh9_-29" target="RTF-Htk1n59OtEz7Hh9_-8">
          <mxGeometry relative="1" as="geometry" />
        </mxCell>
        <mxCell id="RTF-Htk1n59OtEz7Hh9_-29" value="Thuộc" style="rhombus;whiteSpace=wrap;html=1;rounded=0;" vertex="1" parent="1">
          <mxGeometry x="-40" y="250" width="80" height="80" as="geometry" />
        </mxCell>
        <mxCell id="RTF-Htk1n59OtEz7Hh9_-34" value="" style="edgeStyle=orthogonalEdgeStyle;rounded=0;orthogonalLoop=1;jettySize=auto;html=1;" edge="1" parent="1" source="RTF-Htk1n59OtEz7Hh9_-32" target="RTF-Htk1n59OtEz7Hh9_-7">
          <mxGeometry relative="1" as="geometry" />
        </mxCell>
        <mxCell id="RTF-Htk1n59OtEz7Hh9_-32" value="Thi" style="rhombus;whiteSpace=wrap;html=1;rounded=0;" vertex="1" parent="1">
          <mxGeometry x="350" y="250" width="80" height="80" as="geometry" />
        </mxCell>
        <mxCell id="RTF-Htk1n59OtEz7Hh9_-39" value="" style="edgeStyle=orthogonalEdgeStyle;rounded=0;orthogonalLoop=1;jettySize=auto;html=1;" edge="1" parent="1" source="RTF-Htk1n59OtEz7Hh9_-37" target="RTF-Htk1n59OtEz7Hh9_-8">
          <mxGeometry relative="1" as="geometry" />
        </mxCell>
        <mxCell id="RTF-Htk1n59OtEz7Hh9_-37" value="Coi" style="rhombus;whiteSpace=wrap;html=1;rounded=0;" vertex="1" parent="1">
          <mxGeometry x="-110" y="530" width="80" height="80" as="geometry" />
        </mxCell>
        <mxCell id="RTF-Htk1n59OtEz7Hh9_-44" value="" style="edgeStyle=orthogonalEdgeStyle;rounded=0;orthogonalLoop=1;jettySize=auto;html=1;" edge="1" parent="1" source="RTF-Htk1n59OtEz7Hh9_-41" target="RTF-Htk1n59OtEz7Hh9_-43">
          <mxGeometry relative="1" as="geometry" />
        </mxCell>
        <mxCell id="RTF-Htk1n59OtEz7Hh9_-41" value="CÓ" style="rhombus;whiteSpace=wrap;html=1;rounded=0;" vertex="1" parent="1">
          <mxGeometry x="600" y="285" width="80" height="80" as="geometry" />
        </mxCell>
        <mxCell id="RTF-Htk1n59OtEz7Hh9_-43" value="" style="shape=waypoint;sketch=0;size=6;pointerEvents=1;points=[];fillColor=default;resizable=0;rotatable=0;perimeter=centerPerimeter;snapToPoint=1;rounded=0;" vertex="1" parent="1">
          <mxGeometry x="530" y="140" width="20" height="20" as="geometry" />
        </mxCell>
        <mxCell id="RTF-Htk1n59OtEz7Hh9_-48" style="edgeStyle=orthogonalEdgeStyle;rounded=0;orthogonalLoop=1;jettySize=auto;html=1;entryX=0;entryY=1;entryDx=0;entryDy=0;" edge="1" parent="1" source="RTF-Htk1n59OtEz7Hh9_-46" target="RTF-Htk1n59OtEz7Hh9_-5">
          <mxGeometry relative="1" as="geometry" />
        </mxCell>
        <mxCell id="RTF-Htk1n59OtEz7Hh9_-46" value="CÓ" style="rhombus;whiteSpace=wrap;html=1;rounded=0;" vertex="1" parent="1">
          <mxGeometry x="570" y="575" width="80" height="80" as="geometry" />
        </mxCell>
        <mxCell id="RTF-Htk1n59OtEz7Hh9_-51" style="edgeStyle=orthogonalEdgeStyle;rounded=0;orthogonalLoop=1;jettySize=auto;html=1;entryX=0.5;entryY=1;entryDx=0;entryDy=0;" edge="1" parent="1" source="RTF-Htk1n59OtEz7Hh9_-49" target="RTF-Htk1n59OtEz7Hh9_-6">
          <mxGeometry relative="1" as="geometry" />
        </mxCell>
        <mxCell id="RTF-Htk1n59OtEz7Hh9_-49" value="Thuộc" style="rhombus;whiteSpace=wrap;html=1;rounded=0;" vertex="1" parent="1">
          <mxGeometry x="850" y="365" width="80" height="80" as="geometry" />
        </mxCell>
        <mxCell id="RTF-Htk1n59OtEz7Hh9_-54" style="edgeStyle=orthogonalEdgeStyle;rounded=0;orthogonalLoop=1;jettySize=auto;html=1;entryX=1;entryY=0.25;entryDx=0;entryDy=0;" edge="1" parent="1" source="RTF-Htk1n59OtEz7Hh9_-52" target="RTF-Htk1n59OtEz7Hh9_-9">
          <mxGeometry relative="1" as="geometry">
            <Array as="points">
              <mxPoint x="150" y="695" />
            </Array>
          </mxGeometry>
        </mxCell>
        <mxCell id="RTF-Htk1n59OtEz7Hh9_-52" value="Có" style="rhombus;whiteSpace=wrap;html=1;rounded=0;" vertex="1" parent="1">
          <mxGeometry x="70" y="560" width="80" height="80" as="geometry" />
        </mxCell>
        <mxCell id="RTF-Htk1n59OtEz7Hh9_-58" value="" style="edgeStyle=orthogonalEdgeStyle;rounded=0;orthogonalLoop=1;jettySize=auto;html=1;" edge="1" parent="1" source="RTF-Htk1n59OtEz7Hh9_-55" target="RTF-Htk1n59OtEz7Hh9_-57">
          <mxGeometry relative="1" as="geometry" />
        </mxCell>
        <mxCell id="RTF-Htk1n59OtEz7Hh9_-55" value="Giám sát" style="rhombus;whiteSpace=wrap;html=1;rounded=0;" vertex="1" parent="1">
          <mxGeometry x="-60" y="810" width="80" height="80" as="geometry" />
        </mxCell>
        <mxCell id="RTF-Htk1n59OtEz7Hh9_-57" value="" style="shape=waypoint;sketch=0;size=6;pointerEvents=1;points=[];fillColor=default;resizable=0;rotatable=0;perimeter=centerPerimeter;snapToPoint=1;rounded=0;" vertex="1" parent="1">
          <mxGeometry x="30" y="725" width="20" height="20" as="geometry" />
        </mxCell>
        <mxCell id="RTF-Htk1n59OtEz7Hh9_-61" value="" style="endArrow=classic;html=1;rounded=0;exitX=1;exitY=0;exitDx=0;exitDy=0;" edge="1" parent="1" source="RTF-Htk1n59OtEz7Hh9_-8">
          <mxGeometry width="50" height="50" relative="1" as="geometry">
            <mxPoint x="390" y="400" as="sourcePoint" />
            <mxPoint x="190" y="410" as="targetPoint" />
          </mxGeometry>
        </mxCell>
        <mxCell id="RTF-Htk1n59OtEz7Hh9_-63" value="" style="edgeStyle=orthogonalEdgeStyle;rounded=0;orthogonalLoop=1;jettySize=auto;html=1;" edge="1" parent="1" source="RTF-Htk1n59OtEz7Hh9_-62" target="RTF-Htk1n59OtEz7Hh9_-3">
          <mxGeometry relative="1" as="geometry" />
        </mxCell>
        <mxCell id="RTF-Htk1n59OtEz7Hh9_-62" value="Có" style="rhombus;whiteSpace=wrap;html=1;rounded=0;" vertex="1" parent="1">
          <mxGeometry x="185" y="370" width="90" height="80" as="geometry" />
        </mxCell>
        <mxCell id="RTF-Htk1n59OtEz7Hh9_-64" value="" style="endArrow=classic;html=1;rounded=0;exitX=1;exitY=1;exitDx=0;exitDy=0;entryX=0;entryY=0.5;entryDx=0;entryDy=0;" edge="1" parent="1" source="RTF-Htk1n59OtEz7Hh9_-3" target="RTF-Htk1n59OtEz7Hh9_-65">
          <mxGeometry width="50" height="50" relative="1" as="geometry">
            <mxPoint x="390" y="400" as="sourcePoint" />
            <mxPoint x="420" y="410" as="targetPoint" />
          </mxGeometry>
        </mxCell>
        <mxCell id="RTF-Htk1n59OtEz7Hh9_-66" style="edgeStyle=orthogonalEdgeStyle;rounded=0;orthogonalLoop=1;jettySize=auto;html=1;entryX=0;entryY=0.5;entryDx=0;entryDy=0;" edge="1" parent="1" source="RTF-Htk1n59OtEz7Hh9_-65" target="RTF-Htk1n59OtEz7Hh9_-5">
          <mxGeometry relative="1" as="geometry" />
        </mxCell>
        <mxCell id="RTF-Htk1n59OtEz7Hh9_-65" value="Đăng ký" style="rhombus;whiteSpace=wrap;html=1;rounded=0;" vertex="1" parent="1">
          <mxGeometry x="380" y="435" width="80" height="80" as="geometry" />
        </mxCell>
        <mxCell id="RTF-Htk1n59OtEz7Hh9_-68" value="" style="endArrow=classic;html=1;rounded=0;exitX=0.688;exitY=0.838;exitDx=0;exitDy=0;exitPerimeter=0;" edge="1" parent="1" source="RTF-Htk1n59OtEz7Hh9_-32">
          <mxGeometry width="50" height="50" relative="1" as="geometry">
            <mxPoint x="390" y="520" as="sourcePoint" />
            <mxPoint x="470" y="370" as="targetPoint" />
          </mxGeometry>
        </mxCell>
        <mxCell id="RTF-Htk1n59OtEz7Hh9_-69" value="Điểm" style="ellipse;whiteSpace=wrap;html=1;aspect=fixed;" vertex="1" parent="1">
          <mxGeometry x="460" y="355" width="80" height="80" as="geometry" />
        </mxCell>
      </root>
    </mxGraphModel>
  </diagram>
</mxfile>
